<svg width="11.711182" height="17.000000" viewBox="0 0 11.7112 17" fill="none" xmlns="http://www.w3.org/2000/svg" xmlns:xlink="http://www.w3.org/1999/xlink">
	<path id="Facebook Places" d="M11.4346 4.23096C11.374 4.00439 11.2511 3.7627 11.1603 3.55127C10.0724 0.937012 7.69568 0 5.77649 0C3.2074 0 0.377808 1.72266 0 5.27344L0 5.99902C0 6.0293 0.010376 6.30127 0.0252686 6.4375C0.237061 8.12988 1.57239 9.92822 2.56958 11.6206C3.64258 13.4336 4.75586 15.2173 5.85889 17C6.53906 15.8364 7.21667 14.6577 7.88135 13.5244C8.0625 13.1919 8.27283 12.8594 8.4541 12.542C8.57495 12.3306 8.80591 12.1191 8.91138 11.9224C9.98425 9.95801 11.7112 7.97852 11.7112 6.0293L11.7112 5.22852C11.7112 5.01709 11.4492 4.27686 11.4346 4.23096ZM5.82349 7.87305C5.06836 7.87305 4.2417 7.49561 3.83374 6.45264C3.77295 6.28662 3.77783 5.95361 3.77783 5.92334L3.77783 5.45508C3.77783 4.12549 4.90662 3.521 5.88867 3.521C7.09766 3.521 8.03271 4.48828 8.03271 5.69727C8.03271 6.90625 7.03247 7.87305 5.82349 7.87305Z" fill="#FFFFFF" fill-opacity="1.000000" fill-rule="nonzero"/>
</svg>